# xmcd CD database file
#
# Track frame offsets:
#	150
#	25982
#	57900
#	76455
#	96204
#	112870
#	139160
#	157860
#	177179
#	198319
#	227299
#
# Disc length: 3267 seconds
#
# Revision: 1
# Processed by: cddbd v1.5.1PL0 Copyright (c) Steve Scherf et al.
# Submitted via: CDex 1.51
#
DISCID=7e0cc10b
DTITLE=Bud Powell - Blues For Bouffemont
DYEAR=1900
DGENRE=Blues
TTITLE0=In The Mood For A Classik
TTITLE1=Like Someone In Love
TTITLE2=Una Noche Con Francis
TTITLE3=Relaxin' At Camarillo
TTITLE4=Moose The Mooche
TTITLE5=Blues for Bouffemont
TTITLE6=Little Willie Leaps
TTITLE7=My Old Flame
TTITLE8=I Know That You Know
TTITLE9=Star Eyes
TTITLE10=There Will Never be Another You
EXTD=
EXTT0=
EXTT1=
EXTT2=
EXTT3=
EXTT4=
EXTT5=
EXTT6=
EXTT7=
EXTT8=
EXTT9=
EXTT10=
PLAYORDER=
